Coordinates
version=1
nRows=4
nColumns=107
inDegrees=yes

Units are S.I. units (second, meters, Newtons, ...)
If the header above contains a line with 'inDegrees', this indicates whether rotational values are in degrees (yes) or radians (no).

endheader
time	sternoclavicular_r2	sternoclavicular_r3	unrotscap_r3	unrotscap_r2	acromioclavicular_r2	acromioclavicular_r3	acromioclavicular_r1	unrothum_r1	unrothum_r3	unrothum_r2	elv_angle	shoulder_elv	shoulder1_r2	shoulder_rot	elbow_flexion	pro_sup	deviation	flexion	proximal_distal_r1	proximal_distal_r3	cmc_flexion	cmc_abduction	mp_flexion	ip_flexion	mcp2_flexion	mcp2_abduction	pm2_flexion	md2_flexion	mcp3_flexion	mcp3_abduction	pm3_flexion	md3_flexion	mcp4_flexion	mcp4_abduction	pm4_flexion	md4_flexion	mcp5_flexion	mcp5_abduction	pm5_flexion	md5_flexion	bicpt_tx	bicpt_ty	bicpt_tz	bicpt2_tx	bicpt2_ty	bicpt2_tz	ptpt_tx	ptpt_ty	ptpt_tz	FCUpt_tx	FCUpt_ty	FCUpt_tz	EDCpt_tx	EDCpt_ty	EDCpt_tz	APLpt_tx	APLpt_ty	APLpt_tz	FPLpt_tx	FPLpt_ty	FPLpt_tz	FPLpt2_tx	FPLpt2_ty	FPLpt2_tz	PEC1pt2_tx	PEC1pt2_ty	PEC1pt2_tz	PEC1pt3_tx	PEC1pt3_ty	PEC1pt3_tz	PEC2pt2_tx	PEC2pt2_ty	PEC2pt2_tz	PEC2pt3_tx	PEC2pt3_ty	PEC2pt3_tz	PEC3pt2_tx	PEC3pt2_ty	PEC3pt2_tz	PEC3pt3_tx	PEC3pt3_ty	PEC3pt3_tz	DELT2pt2a_tx	DELT2pt2a_ty	DELT2pt2a_tz	DELT2pt2_tx	DELT2pt2_ty	DELT2pt2_tz	LAT1pt2_tx	LAT1pt2_ty	LAT1pt2_tz	LAT1pt3_tx	LAT1pt3_ty	LAT1pt3_tz	LAT2pt2_tx	LAT2pt2_ty	LAT2pt2_tz	LAT2pt3_tx	LAT2pt3_ty	LAT2pt3_tz	LAT3pt2_tx	LAT3pt2_ty	LAT3pt2_tz	LAT3pt3_tx	LAT3pt3_ty	LAT3pt3_tz
      0.00000000	     -0.32082339	      0.13588565	     -0.13588565	      0.32082339	     -0.06496021	      0.52498558	      0.23597740	     -0.23597740	     -0.52498558	      0.06496021	     97.42803053	     75.95779000	     -1.70043992	    -23.94159717	     32.04486294	     44.77076363	      0.22332049	     -0.92151730	      0.26225733	     -0.46075865	     19.43906015	      5.00591751	    -42.49809394	    -70.08026540	     96.96802515	     13.37647260	     79.26820274	     21.06777543	     95.75596288	      0.70563774	     79.20840161	     26.61421056	     93.55977641	    -13.42262234	     83.61900501	     27.52922999	    101.65600509	    -13.99848194	     65.23489118	      5.42503539	      0.00095994	     -0.03127283	     -0.00489160	      0.01655729	     -0.01890514	     -0.00694479	      0.00424195	     -0.06703904	     -0.00365653	      0.00826406	     -0.18339259	     -0.00041172	     -0.00537248	      0.00157782	      0.00010600	      0.00023169	      0.00009267	      0.00046337	      0.00029656	      0.00088968	      0.00050044	      0.00001321	     -0.00027605	     -0.00033126	      0.00248973	      0.00873515	      0.00607663	     -0.00814437	      0.01966464	     -0.01865187	      0.00248973	      0.00873515	      0.00607663	      0.00054858	      0.01822988	     -0.00957913	      0.00394001	      0.00485751	      0.01594823	      0.00000000	      0.00771574	      0.00000000	     -0.00713160	     -0.03295727	     -0.00636162	      0.01594686	     -0.00055597	     -0.00478548	     -0.00088617	      0.01485398	     -0.00607663	      0.00244753	      0.02143699	     -0.01772350	     -0.00595003	      0.01287064	     -0.00544365	     -0.01240645	      0.02717603	     -0.03042534	     -0.02329374	      0.01438979	     -0.00730039	     -0.01544476	      0.03139591	     -0.03802113
      0.03333333	     -0.32083515	      0.13589063	     -0.13589063	      0.32083515	     -0.06496259	      0.52500482	      0.23598605	     -0.23598605	     -0.52500482	      0.06496259	     97.44788141	     75.96057405	     -1.70078638	    -23.93793045	     32.05079307	     44.76727428	      0.22328265	     -0.92148747	      0.26221920	     -0.46074373	     19.43698066	      5.00475636	    -42.49895193	    -70.08034247	     96.96918895	     13.37568326	     79.26770238	     21.06745864	     95.75909175	      0.70807925	     79.21066771	     26.61530161	     93.56009670	    -13.42197106	     83.62018073	     27.52949448	    101.65519777	    -13.99805718	     65.23667088	      5.42552865	      0.00096014	     -0.03127351	     -0.00489171	      0.01655732	     -0.01890676	     -0.00694518	      0.00424220	     -0.06703888	     -0.00365624	      0.00826371	     -0.18339267	     -0.00041170	     -0.00537206	      0.00157768	      0.00010604	      0.00023170	      0.00009268	      0.00046339	      0.00029657	      0.00088972	      0.00050047	      0.00001321	     -0.00027604	     -0.00033125	      0.00248982	      0.00873547	      0.00607685	     -0.00814467	      0.01966537	     -0.01865256	      0.00248982	      0.00873547	      0.00607685	      0.00054860	      0.01823055	     -0.00957948	      0.00394012	      0.00485769	      0.01594849	      0.00000000	      0.00771630	      0.00000000	     -0.00713186	     -0.03295848	     -0.00636209	      0.01594494	     -0.00055585	     -0.00478399	     -0.00088621	      0.01485452	     -0.00607685	      0.00244762	      0.02143778	     -0.01772415	     -0.00595025	      0.01287111	     -0.00544385	     -0.01240690	      0.02717703	     -0.03042646	     -0.02329460	      0.01439032	     -0.00730066	     -0.01544533	      0.03139706	     -0.03802252
      0.06666667	     -0.32064016	      0.13580804	     -0.13580804	      0.32064016	     -0.06492311	      0.52468574	      0.23584263	     -0.23584263	     -0.52468574	      0.06492311	     97.46538648	     75.91440788	     -1.70109190	    -23.99162592	     31.93109950	     43.41704622	      0.19816622	     -0.95239591	      0.23679689	     -0.47619796	     18.27061562	      2.56134890	    -42.61560846	    -70.08370675	     96.97987093	     13.17716667	     79.00223644	     20.79886108	     94.93330054	      2.21194143	     81.65920439	     34.31402848	     92.39401290	    -13.16155502	     86.96013223	     27.93271552	     99.25548934	    -13.99622274	     72.28452091	      5.66630851	      0.00095618	     -0.03125979	     -0.00488950	      0.01656744	     -0.01887424	     -0.00709707	      0.00434197	     -0.06697437	     -0.00354748	      0.00812606	     -0.18342232	     -0.00040628	     -0.00521003	      0.00152105	      0.00011873	      0.00021482	      0.00008593	      0.00042963	      0.00027497	      0.00082490	      0.00046400	      0.00001608	     -0.00027131	     -0.00032558	      0.00248831	      0.00873016	      0.00607316	     -0.00813972	      0.01965341	     -0.01864122	      0.00248831	      0.00873016	      0.00607316	      0.00054827	      0.01821947	     -0.00957366	      0.00393837	      0.00485473	      0.01594419	      0.00000000	      0.00770686	      0.00000000	     -0.00712753	     -0.03293845	     -0.00635425	      0.01597311	     -0.00055758	     -0.00480581	     -0.00088567	      0.01484550	     -0.00607316	      0.00244613	      0.02142475	     -0.01771338	     -0.00594663	      0.01286329	     -0.00544054	     -0.01239936	      0.02716051	     -0.03040796	     -0.02328044	      0.01438157	     -0.00729622	     -0.01543594	      0.03137798	     -0.03799941
      0.10000000	     -0.32050323	      0.13575004	     -0.13575004	      0.32050323	     -0.06489538	      0.52446167	      0.23574191	     -0.23574191	     -0.52446167	      0.06489538	     97.31527658	     75.88198843	     -1.69847199	    -23.92832559	     32.47894371	     44.27927631	      0.23788818	     -0.84488598	      0.27652790	     -0.42244299	     18.03161826	      3.44947833	    -42.79479818	    -68.64002108	     97.04700917	     13.12825576	     77.55561748	     24.49575040	     94.49584518	      2.86580744	     81.52566512	     42.53443875	     92.07965779	    -13.05788494	     85.36006066	     33.35147241	     97.75608827	    -13.98687922	     73.61126959	      5.69128497	      0.00097430	     -0.03132258	     -0.00489961	      0.01656146	     -0.01902306	     -0.00700038	      0.00427826	     -0.06701556	     -0.00361693	      0.00821389	     -0.18340345	     -0.00040990	     -0.00531350	      0.00155714	      0.00011074	      0.00026664	      0.00010666	      0.00053328	      0.00034130	      0.00102390	      0.00057594	      0.00001667	     -0.00027016	     -0.00032419	      0.00248725	      0.00872644	      0.00607056	     -0.00813624	      0.01964502	     -0.01863326	      0.00248725	      0.00872644	      0.00607056	      0.00054804	      0.01821169	     -0.00956957	      0.00393714	      0.00485266	      0.01594117	      0.00000000	      0.00770024	      0.00000000	     -0.00712448	     -0.03292438	     -0.00634875	      0.01593991	     -0.00055554	     -0.00478008	     -0.00088529	      0.01483916	     -0.00607056	      0.00244509	      0.02141560	     -0.01770581	     -0.00594409	      0.01285779	     -0.00543821	     -0.01239407	      0.02714891	     -0.03039498	     -0.02327050	      0.01437543	     -0.00729311	     -0.01542935	      0.03136458	     -0.03798318
